<svg width="26" height="26" viewBox="0 0 26 26" fill="none" xmlns="http://www.w3.org/2000/svg">
<path fill-rule="evenodd" clip-rule="evenodd" d="M7.82123 6.50016C6.88523 6.50016 6.00773 6.862 5.35123 7.51958C3.9884 8.88458 3.9884 11.1065 5.35231 12.4737L12.9996 20.1339L20.6479 12.4737C22.0118 11.1065 22.0118 8.88458 20.6479 7.51958C19.3349 6.20333 17.0209 6.2055 15.7079 7.51958L13.7666 9.46416C13.3592 9.87258 12.6399 9.87258 12.2326 9.46416L10.2912 7.5185C9.63473 6.862 8.75831 6.50016 7.82123 6.50016ZM12.9996 22.7502C12.7125 22.7502 12.4362 22.6364 12.2336 22.4317L3.81831 14.0033C1.61265 11.7933 1.61265 8.19775 3.81831 5.98775C4.88431 4.92175 6.30565 4.3335 7.82123 4.3335C9.33681 4.3335 10.7592 4.92175 11.8241 5.98775L12.9996 7.16533L14.175 5.98883C15.241 4.92175 16.6623 4.3335 18.179 4.3335C19.6935 4.3335 21.1159 4.92175 22.1808 5.98775C24.3876 8.19775 24.3876 11.7933 22.1819 14.0033L13.7666 22.4327C13.5629 22.6364 13.2877 22.7502 12.9996 22.7502Z" fill="black"/>
</svg>
