<svg width="28" height="28" viewBox="0 0 28 28" fill="none" xmlns="http://www.w3.org/2000/svg">
<path fill-rule="evenodd" clip-rule="evenodd" d="M17.5 12.834H15.1667V10.5007C15.1667 9.85898 14.6417 9.33398 14 9.33398C13.3583 9.33398 12.8333 9.85898 12.8333 10.5007V12.834H10.5C9.85834 12.834 9.33334 13.359 9.33334 14.0007C9.33334 14.6423 9.85834 15.1673 10.5 15.1673H12.8333V17.5007C12.8333 18.1423 13.3583 18.6673 14 18.6673C14.6417 18.6673 15.1667 18.1423 15.1667 17.5007V15.1673H17.5C18.1417 15.1673 18.6667 14.6423 18.6667 14.0007C18.6667 13.359 18.1417 12.834 17.5 12.834ZM14 23.334C8.85384 23.334 4.66668 19.1468 4.66668 14.0007C4.66668 8.85449 8.85384 4.66732 14 4.66732C19.1462 4.66732 23.3333 8.85449 23.3333 14.0007C23.3333 19.1468 19.1462 23.334 14 23.334ZM14 2.33398C7.56701 2.33398 2.33334 7.56765 2.33334 14.0007C2.33334 20.4337 7.56701 25.6673 14 25.6673C20.433 25.6673 25.6667 20.4337 25.6667 14.0007C25.6667 7.56765 20.433 2.33398 14 2.33398Z" fill="#D7D7D7"/>
</svg>
