<svg width="24" height="24" viewBox="0 0 24 24" fill="none" xmlns="http://www.w3.org/2000/svg">
<g opacity="0.2">
<path fill-rule="evenodd" clip-rule="evenodd" d="M16.0184 10.6782L13.3234 7.98319L15.2714 6.03419L17.9654 8.72819L16.0184 10.6782ZM9.07941 17.6242L6.10241 17.8952L6.36641 14.9392L11.9834 9.32219L14.6794 12.0182L9.07941 17.6242ZM19.4034 7.33719L19.4024 7.33619L16.6644 4.59819C15.9234 3.85919 14.6504 3.82419 13.9484 4.52919L4.95241 13.5252C4.62641 13.8502 4.42441 14.2822 4.38241 14.7392L4.00341 18.9092C3.97741 19.2042 4.08241 19.4962 4.29241 19.7062C4.48141 19.8952 4.73641 19.9992 4.99941 19.9992C5.03041 19.9992 5.06041 19.9982 5.09041 19.9952L9.26041 19.6162C9.71841 19.5742 10.1494 19.3732 10.4744 19.0482L19.4714 10.0512C20.1994 9.32119 20.1684 8.10319 19.4034 7.33719Z" fill="black"/>
</g>
</svg>
