<svg width="70" height="70" viewBox="0 0 70 70" fill="none" xmlns="http://www.w3.org/2000/svg">
<path d="M35.1437 58.7992C21.9838 58.7992 11.3438 48.1592 11.3438 34.9992C11.3438 21.8392 21.9838 11.1992 35.1437 11.1992C48.3037 11.1992 58.9437 21.8392 58.9437 34.9992C58.9437 48.1592 48.1637 58.7992 35.1437 58.7992ZM35.1437 13.9992C23.5237 13.9992 14.1437 23.3792 14.1437 34.9992C14.1437 46.6192 23.5237 55.9992 35.1437 55.9992C46.7637 55.9992 56.1437 46.6192 56.1437 34.9992C56.1437 23.3792 46.6237 13.9992 35.1437 13.9992Z" fill="black"/>
<path d="M21.4184 52.2208L18.8984 51.1008C19.5984 49.4208 21.8384 48.4408 24.2184 47.3208C26.5984 46.2008 29.5384 44.9408 29.5384 43.4008V41.3008C28.6984 40.6008 27.2984 39.0608 27.0184 36.8208C26.3184 36.1208 25.1984 34.8608 25.1984 33.1808C25.1984 32.2008 25.6184 31.3608 25.8984 30.8008C25.6184 29.6808 25.3384 27.5808 25.3384 25.9008C25.3384 20.4408 29.1184 16.8008 35.1384 16.8008C36.8184 16.8008 38.9184 17.2208 40.0384 18.4808C42.6984 19.0408 44.9384 22.1208 44.9384 25.9008C44.9384 28.2808 44.5184 30.2408 44.2384 31.2208C44.5184 31.6408 44.7984 32.3408 44.7984 33.1808C44.7984 35.0008 43.8184 36.2608 42.9784 36.8208C42.6984 39.0608 41.4384 40.4608 40.5984 41.1608V43.4008C40.5984 44.6608 43.1184 45.6408 45.3584 46.4808C48.0184 47.4608 50.8184 48.5808 51.7984 50.8208L49.1384 51.8008C48.7184 50.6808 46.4784 49.8408 44.3784 49.1408C41.2984 48.0208 37.7984 46.7608 37.7984 43.5408V39.9008L38.4984 39.4808C38.4984 39.4808 40.1784 38.3608 40.1784 36.1208V35.1408L41.0184 34.7208C41.1584 34.7208 41.8584 34.3008 41.8584 33.1808C41.8584 32.9008 41.5784 32.4808 41.4384 32.3408L40.8784 31.7808L41.1584 31.0808C41.1584 31.0808 41.8584 28.8408 41.8584 26.0408C41.8584 23.3808 40.3184 21.4208 39.0584 21.4208H38.2184L37.7984 20.7208C37.7984 20.1608 36.8184 19.6008 35.1384 19.6008C30.7984 19.6008 28.1384 21.9808 28.1384 25.9008C28.1384 27.7208 28.8384 30.8008 28.8384 30.8008L28.9784 31.5008L28.4184 32.2008C28.2784 32.2008 27.9984 32.6208 27.9984 33.1808C27.9984 33.8808 28.8384 34.7208 29.2584 35.0008L29.8184 35.4208V36.1208C29.8184 38.2208 31.6384 39.3408 31.6384 39.4808L32.3384 39.9008V43.5408C32.3384 46.9008 28.6984 48.5808 25.3384 49.9808C23.7984 50.5408 21.6984 51.5208 21.4184 52.2208Z" fill="black"/>
</svg>
