<svg width="65" height="32" viewBox="0 0 65 32" fill="none" xmlns="http://www.w3.org/2000/svg">
<path d="M16.9272 5.33398H37.9168V19.334H16.9272V5.33398Z" fill="white"/>
<path d="M37.5781 3.66602H18.6198C17.3333 3.66602 16.25 4.73268 16.25 5.99935V17.666C16.25 18.9327 17.3333 19.9993 18.6198 19.9993H37.5781C38.8646 19.9993 39.9479 18.9327 39.9479 17.666V5.99935C39.9479 4.73268 38.8646 3.66602 37.5781 3.66602ZM37.5781 17.666H18.6198V10.666H37.5781V17.666ZM37.5781 7.19935H18.6198V5.99935H37.5781V7.19935ZM20.9896 13.1327V13.7993H21.6667V13.1327H20.9896ZM25.2552 14.5327V15.1993H26.6771V14.5327H27.3542V13.866H28.0312V13.1993H26.6094V13.866H25.9323V14.5327H25.2552ZM28.099 15.1993V14.5327H27.4219V15.1993H28.099ZM24.5104 15.1993V14.5327H23.0885V15.1993H24.5104ZM25.2552 13.7993H25.9323V13.1327H24.5104V14.5327H25.1875L25.2552 13.7993ZM22.4115 14.5327H23.0885V13.866H23.7656V13.1993H22.4115V13.866H21.6667V14.5327H20.9896V15.1993H22.4115V14.5327Z" fill="#515151"/>
<path d="M39.8127 1.33398C40.0835 1.40065 40.4221 1.46732 40.7606 1.66732C42.0471 2.33398 43.2658 3.00065 44.4846 3.73398C45.5002 4.26732 46.5158 4.86732 47.6669 5.00065C48.2085 5.06732 48.4794 5.46732 48.4794 5.93398C48.344 8.13398 48.0731 10.2673 47.396 12.4007C46.245 16.2007 44.0783 19.2007 40.6252 21.2673C39.9481 21.6673 39.4742 21.6673 38.7971 21.2673C34.8023 18.8007 32.5679 15.134 31.62 10.6673C31.2815 9.13398 31.2137 7.53398 31.0106 5.93398C30.9429 5.53398 31.2815 5.06732 31.6877 5.06732C33.3804 4.93398 34.6669 3.93398 36.0887 3.13398C37.0367 2.60065 38.0523 2.06732 39.0679 1.60065C39.271 1.46732 39.5419 1.40065 39.8127 1.33398Z" fill="#0521CC"/>
<path d="M39.9478 1.33398C39.2707 1.40065 39.3384 1.40065 39.1353 1.53398C38.1197 2.00065 37.104 2.53398 36.1561 3.06732C34.7343 3.86732 33.4478 4.80065 31.7551 5.00065C31.3488 5.06732 31.0103 5.46732 31.078 5.86732C31.2811 7.46732 31.3488 9.06732 31.6874 10.6007C32.6353 15.0673 34.9374 18.734 38.9322 21.2007C39.2707 21.4007 39.2707 21.4673 39.9478 21.4673V1.33398Z" fill="#0623B2"/>
<path d="M48.75 27.9993C48.75 29.466 47.5312 30.666 46.0417 30.666H18.9583C17.4687 30.666 16.25 29.466 16.25 27.9993V25.3327C16.25 23.866 17.4687 22.666 18.9583 22.666H46.0417C47.5312 22.666 48.75 23.866 48.75 25.3327V27.9993Z" fill="#515151"/>
<path d="M19.3644 26.3327H19.7707C20.1092 26.3327 20.3123 26.1993 20.3123 25.866C20.3123 25.7327 20.2446 25.666 20.1769 25.5327C20.1092 25.466 19.9738 25.3993 19.8384 25.3993C19.703 25.3993 19.6353 25.466 19.4998 25.5327C19.4321 25.5993 19.3644 25.666 19.3644 25.7993H18.4842C18.4842 25.5993 18.5519 25.3993 18.6873 25.266C18.8228 25.1327 18.9582 24.9993 19.1613 24.866C19.3644 24.7993 19.5675 24.7327 19.8384 24.7327C20.2446 24.7327 20.6509 24.7993 20.854 24.9993C21.0571 25.1993 21.2603 25.466 21.2603 25.7993C21.2603 25.9993 21.1925 26.1327 21.1248 26.266C20.9894 26.3994 20.854 26.5327 20.6509 26.5993C20.854 26.666 21.0571 26.7994 21.1248 26.9327C21.2603 27.066 21.328 27.266 21.328 27.466C21.328 27.7993 21.1925 28.066 20.9217 28.266C20.6509 28.466 20.3123 28.5993 19.8384 28.5993C19.5675 28.5993 19.3644 28.5327 19.0936 28.466C18.8905 28.3993 18.6873 28.266 18.6196 28.066C18.4842 27.866 18.4165 27.7327 18.4165 27.466H19.3644C19.3644 27.5993 19.4321 27.666 19.4998 27.7993C19.5675 27.866 19.703 27.9327 19.8384 27.9327C19.9738 27.9327 20.1092 27.866 20.2446 27.7993C20.3123 27.7327 20.38 27.5993 20.38 27.466C20.38 27.266 20.3123 27.1327 20.2446 27.066C20.1769 26.9993 20.0415 26.9327 19.8384 26.9327H19.3644V26.3327ZM21.8019 28.666V24.7993H23.0884C23.4269 24.7993 23.7655 24.866 24.0363 24.9993C24.3071 25.1327 24.5103 25.3993 24.7134 25.666C24.8488 25.9327 24.9165 26.266 24.9842 26.5993V26.7993C24.9842 27.1327 24.9165 27.466 24.7811 27.7327C24.6457 27.9993 24.4425 28.266 24.104 28.3993C23.8332 28.5327 23.4946 28.666 23.1561 28.666H21.8019ZM22.7498 25.5327V27.9993H23.0884C23.3592 27.9993 23.5623 27.9327 23.6978 27.7327C23.8332 27.5327 23.9009 27.266 23.9009 26.866V26.666C23.9009 26.266 23.8332 25.9993 23.6978 25.7993C23.5623 25.5993 23.3592 25.5327 23.0884 25.5327H22.7498ZM28.7759 27.666C28.7759 27.5327 28.7082 27.3993 28.6405 27.3327C28.5728 27.266 28.3696 27.1993 28.0988 27.066C27.828 26.9993 27.6248 26.9327 27.4894 26.7993C26.9478 26.5327 26.7446 26.1993 26.7446 25.7993C26.7446 25.5993 26.8123 25.3993 26.9478 25.1993C27.0832 25.066 27.2863 24.9327 27.4894 24.7993C27.6925 24.7327 27.9634 24.666 28.3019 24.666C28.5728 24.666 28.8436 24.7327 29.0467 24.7993C29.2498 24.866 29.453 25.066 29.5884 25.1993C29.7238 25.3993 29.7915 25.5993 29.7915 25.7993H28.8436C28.8436 25.666 28.7759 25.5327 28.7082 25.3993C28.6405 25.3327 28.505 25.266 28.3019 25.266C28.0988 25.266 28.0311 25.3327 27.8957 25.3993C27.828 25.466 27.7603 25.5993 27.7603 25.666C27.7603 25.7327 27.828 25.866 27.8957 25.9327L28.4373 26.1993C28.7082 26.266 28.9113 26.3993 29.1144 26.466C29.5207 26.7327 29.7238 27.066 29.7238 27.466C29.7238 27.7993 29.5884 28.066 29.3175 28.266C29.0467 28.466 28.7082 28.5327 28.2342 28.5327C27.8957 28.5327 27.6248 28.466 27.354 28.3327C27.0832 28.1993 26.88 28.066 26.7446 27.866C26.6092 27.666 26.5415 27.466 26.5415 27.1993H27.4894C27.4894 27.3993 27.5571 27.5327 27.6248 27.666C27.7603 27.7327 27.8957 27.7993 28.1665 27.7993C28.3019 27.7993 28.4373 27.7993 28.505 27.7327C28.7082 27.866 28.7759 27.7327 28.7759 27.666ZM32.6353 26.9993H31.1457V27.9327H32.9061V28.666H30.1978V24.7993H32.9061V25.5327H31.1457V26.3327H32.6353V26.9993ZM36.4946 27.3327C36.4946 27.5993 36.4269 27.866 36.2915 28.066C36.1561 28.266 35.953 28.466 35.7498 28.5327C35.479 28.666 35.2082 28.7327 34.9373 28.7327C34.3957 28.7327 33.9894 28.5993 33.7186 28.266C33.4478 27.9327 33.2446 27.466 33.2446 26.866V26.666C33.2446 26.266 33.3123 25.9327 33.4478 25.666C33.5832 25.3993 33.7863 25.1327 34.0571 24.9993C34.328 24.866 34.5988 24.7993 34.9373 24.7993C35.4113 24.7993 35.8175 24.9327 36.0884 25.1993C36.3592 25.466 36.5623 25.7993 36.5623 26.1993H35.6144C35.6144 25.9327 35.5467 25.7993 35.4113 25.666C35.2759 25.5327 35.1405 25.5327 34.8696 25.5327C34.6665 25.5327 34.4634 25.5993 34.328 25.7993C34.1925 25.9993 34.1925 26.266 34.1248 26.666V26.9327C34.1248 27.3327 34.1925 27.666 34.2603 27.7993C34.3957 27.9993 34.5311 28.066 34.8019 28.066C35.005 28.066 35.2082 27.9994 35.2759 27.9327C35.4113 27.7994 35.479 27.666 35.479 27.466H36.4946V27.3327ZM40.0832 24.7993V27.3327C40.0832 27.5993 40.0155 27.866 39.88 28.066C39.7446 28.266 39.6092 28.466 39.3384 28.5327C39.0675 28.5993 38.7967 28.666 38.5259 28.666C38.0519 28.666 37.6457 28.5327 37.3748 28.266C37.104 27.9994 36.9686 27.666 36.9686 27.266V24.7327H37.9165V27.3327C37.9165 27.7327 38.1196 27.9993 38.5259 27.9993C38.729 27.9993 38.8644 27.9327 38.9998 27.866C39.0675 27.7327 39.1353 27.5993 39.1353 27.3327V24.7993H40.0832ZM42.1144 27.3327H41.5728V28.666H40.6248V24.7993H42.1821C42.6561 24.7993 42.9946 24.9327 43.2655 25.1327C43.5363 25.3327 43.6717 25.5993 43.6717 25.9993C43.6717 26.266 43.604 26.466 43.5363 26.666C43.4009 26.866 43.2655 26.9993 42.9946 27.066L43.8071 28.666H42.7915L42.1144 27.3327ZM41.5728 26.5993H42.1821C42.3853 26.5993 42.5207 26.5327 42.5884 26.466C42.6561 26.3993 42.7238 26.266 42.7238 26.066C42.7238 25.866 42.6561 25.7993 42.5884 25.666C42.5207 25.5327 42.3853 25.5327 42.1821 25.5327H41.5728V26.5993ZM46.7186 26.9993H45.229V27.9327H46.9894V28.666H44.2811V24.7993H46.9894V25.5327H45.229V26.3327H46.7186V26.9993Z" fill="white"/>
</svg>
