<svg width="34" height="34" viewBox="0 0 34 34" fill="none" xmlns="http://www.w3.org/2000/svg">
<path d="M2.31891 29.749H7.72504V16.6185L0 10.8179V27.4301C0 28.7157 1.04059 29.749 2.31891 29.749Z" fill="#4285F4"/>
<path d="M26.2749 29.749H31.681C32.9594 29.749 33.9999 28.7084 33.9999 27.4301V10.8179L26.2749 16.6112V29.749Z" fill="#34A853"/>
<path d="M26.2749 6.56821V16.6115L33.9999 10.8182V7.72434C33.9999 4.86156 30.7294 3.22266 28.4378 4.94324L26.2749 6.56821Z" fill="#FBBC04"/>
<path d="M7.7251 16.6185V6.56787L17.0001 13.5246L26.275 6.56787V16.6185L17.0001 23.5679L7.7251 16.6185Z" fill="#EA4335"/>
<path d="M0 7.73069V10.8246L7.72504 16.6178V6.56791L5.56219 4.94959C3.27051 3.22901 0 4.86791 0 7.73069Z" fill="#C5221F"/>
</svg>
