<svg width="26" height="26" viewBox="0 0 26 26" fill="none" xmlns="http://www.w3.org/2000/svg">
<path fill-rule="evenodd" clip-rule="evenodd" d="M17.3333 21.6527H20.5725L20.5833 12.5787L12.9978 4.78741L5.42317 12.5343L5.41667 21.6527H8.66667V14.0694C8.66667 13.4703 9.15092 12.9861 9.75 12.9861H16.25C16.848 12.9861 17.3333 13.4703 17.3333 14.0694V21.6527ZM15.1667 21.6527H10.8333V15.1527H15.1667V21.6527ZM22.126 11.0198L13.7746 2.47883C13.3662 2.06174 12.6338 2.06174 12.2254 2.47883L3.87292 11.0209C3.4775 11.4272 3.25 11.9948 3.25 12.5787V21.6527C3.25 22.8477 4.16758 23.8194 5.29533 23.8194H9.75H16.25H20.7036C21.8313 23.8194 22.75 22.8477 22.75 21.6527V12.5787C22.75 11.9948 22.5225 11.4272 22.126 11.0198V11.0198Z" fill="black"/>
</svg>
