<svg width="26" height="26" viewBox="0 0 26 26" fill="none" xmlns="http://www.w3.org/2000/svg">
<path fill-rule="evenodd" clip-rule="evenodd" d="M18.9003 21.666H7.10385C6.77235 21.666 6.5026 21.4233 6.5026 21.1243V4.87435C6.5026 4.57535 6.77235 4.33268 7.10385 4.33268H11.9193V8.82852C11.9193 10.5315 13.2377 11.916 14.8594 11.916H19.5026V21.1243C19.5026 21.4233 19.2318 21.666 18.9003 21.666V21.666ZM19.1224 9.74935H14.8594C14.4326 9.74935 14.0859 9.3366 14.0859 8.82852V4.33268H14.2073L19.1224 9.74935ZM21.3876 9.02135L15.4899 2.52135C15.2852 2.29493 14.9938 2.16602 14.6872 2.16602H7.10385C5.57744 2.16602 4.33594 3.38152 4.33594 4.87435V21.1243C4.33594 22.6172 5.57744 23.8327 7.10385 23.8327H18.9003C20.4267 23.8327 21.6693 22.6172 21.6693 21.1243V9.74935C21.6693 9.4796 21.5685 9.22068 21.3876 9.02135V9.02135Z" fill="black"/>
</svg>
