<svg width="26" height="26" viewBox="0 0 26 26" fill="none" xmlns="http://www.w3.org/2000/svg">
<path fill-rule="evenodd" clip-rule="evenodd" d="M4.76902 12.5898C5.97802 13.0048 6.9411 14.0166 7.3441 15.2993L7.38744 15.4293C7.84894 16.7899 7.66152 18.2546 6.88802 19.3531C6.74719 19.5524 6.7786 19.7908 6.92702 19.9034L9.17169 21.6086C9.25077 21.6682 9.32769 21.6682 9.37535 21.6628C9.42952 21.6541 9.5086 21.6248 9.57252 21.5338L9.82277 21.1785C10.5692 20.1201 11.7717 19.4668 13.0414 19.43C14.467 19.4008 15.7475 20.054 16.5449 21.2056L16.6727 21.3908C16.7366 21.4818 16.8146 21.5122 16.8699 21.5208C16.9175 21.5306 16.9955 21.5273 17.0735 21.4667L19.3063 19.7821C19.4623 19.6651 19.4969 19.4148 19.381 19.2469L19.0994 18.8407C18.3735 17.792 18.1579 16.4313 18.523 15.2018C18.9195 13.8628 19.9281 12.8033 21.2227 12.3699L21.4404 12.2963C21.6149 12.2388 21.7091 12.0222 21.6474 11.8228L20.7948 9.09177C20.7547 8.96393 20.6724 8.90652 20.6269 8.88268C20.5619 8.8491 20.4914 8.84368 20.4243 8.86643L20.0559 8.98885C18.796 9.4081 17.4061 9.1806 16.339 8.37785L16.222 8.2901C15.208 7.52743 14.6046 6.29785 14.6089 5.00218L14.6111 4.69885C14.6111 4.55477 14.5429 4.46485 14.5017 4.42368C14.4627 4.3836 14.3966 4.33593 14.3034 4.33593L11.5442 4.33268C11.3752 4.33268 11.2376 4.4941 11.2365 4.69343L11.2354 4.9556C11.23 6.27185 10.6136 7.52418 9.5866 8.30743L9.44685 8.4136C8.31694 9.27268 6.8436 9.51535 5.50894 9.06035C5.45802 9.04302 5.41035 9.04627 5.36485 9.0701C5.33019 9.08743 5.26735 9.13185 5.23702 9.23043L4.35194 12.0428C4.28802 12.2475 4.3931 12.4609 4.59135 12.5292L4.76902 12.5898ZM9.33094 23.8327C8.80444 23.8327 8.2931 23.6615 7.86194 23.3333L5.61727 21.6292C4.54477 20.8167 4.30752 19.2534 5.08752 18.1452C5.49269 17.571 5.5761 16.8333 5.33777 16.1334L5.27819 15.9514C5.07994 15.3209 4.6271 14.8313 4.06702 14.6395H4.06594L3.88935 14.5778C2.56985 14.126 1.86569 12.7274 2.28494 11.3928L3.16894 8.58152C3.36935 7.9456 3.8016 7.4321 4.3866 7.13635C4.9586 6.84818 5.60535 6.80377 6.20985 7.01068C6.85877 7.23168 7.57919 7.11143 8.13494 6.68893L8.27469 6.58277C8.76869 6.20577 9.0666 5.59368 9.06877 4.94693L9.06985 4.68585C9.07527 3.29485 10.1857 2.16602 11.5431 2.16602H11.5474L14.3067 2.16927C14.9589 2.17035 15.5742 2.42818 16.0379 2.8951C16.5178 3.37718 16.7799 4.02177 16.7778 4.70968L16.7756 5.01193C16.7734 5.6251 17.054 6.20468 17.5274 6.56002L17.6434 6.64777C18.1406 7.02152 18.7884 7.12877 19.3702 6.93377L19.7374 6.81135C20.3625 6.60335 21.0277 6.65427 21.6138 6.95435C22.215 7.26202 22.6592 7.79177 22.8629 8.44718L23.7154 11.1783C24.1271 12.4978 23.4143 13.9213 22.1284 14.3513L21.9106 14.4239C21.2866 14.6341 20.7959 15.1541 20.5998 15.8171C20.4199 16.4248 20.5239 17.0933 20.8804 17.6068L21.162 18.013C21.9355 19.131 21.6885 20.6997 20.6117 21.5111L18.3789 23.1968C17.8427 23.6019 17.1851 23.7655 16.5254 23.6604C15.8602 23.5532 15.2795 23.1848 14.8906 22.6237L14.7628 22.4373C14.3836 21.8913 13.7769 21.5598 13.141 21.5956C12.504 21.6129 11.9537 21.9152 11.594 22.4265L11.3438 22.7818C10.9516 23.3376 10.3699 23.7005 9.70794 23.8045C9.58119 23.824 9.45552 23.8327 9.33094 23.8327V23.8327ZM12.9993 11.3742C12.1034 11.3742 11.3743 12.1033 11.3743 12.9992C11.3743 13.8952 12.1034 14.6242 12.9993 14.6242C13.8952 14.6242 14.6243 13.8952 14.6243 12.9992C14.6243 12.1033 13.8952 11.3742 12.9993 11.3742M12.9993 16.7909C10.9085 16.7909 9.20765 15.0901 9.20765 12.9992C9.20765 10.9084 10.9085 9.20757 12.9993 9.20757C15.0902 9.20757 16.791 10.9084 16.791 12.9992C16.791 15.0901 15.0902 16.7909 12.9993 16.7909" fill="black"/>
</svg>
