<svg width="26" height="26" viewBox="0 0 26 26" fill="none" xmlns="http://www.w3.org/2000/svg">
<path fill-rule="evenodd" clip-rule="evenodd" d="M11.9141 16.2493H7.58073C6.9849 16.2493 6.4974 15.7618 6.4974 15.166C6.4974 14.5702 6.9849 14.0827 7.58073 14.0827H11.9141C12.5099 14.0827 12.9974 14.5702 12.9974 15.166C12.9974 15.7618 12.5099 16.2493 11.9141 16.2493ZM18.4141 16.2493H16.2474C15.6516 16.2493 15.1641 15.7618 15.1641 15.166C15.1641 14.5702 15.6516 14.0827 16.2474 14.0827H18.4141C19.0099 14.0827 19.4974 14.5702 19.4974 15.166C19.4974 15.7618 19.0099 16.2493 18.4141 16.2493ZM21.6641 17.3327C21.6641 17.9296 21.1787 18.416 20.5807 18.416H5.41406C4.81606 18.416 4.33073 17.9296 4.33073 17.3327V11.916H21.6641V17.3327ZM4.33073 8.66602C4.33073 8.0691 4.81606 7.58268 5.41406 7.58268H20.5807C21.1787 7.58268 21.6641 8.0691 21.6641 8.66602V9.74935H4.33073V8.66602ZM20.5807 5.41602H5.41406C3.62223 5.41602 2.16406 6.87418 2.16406 8.66602V17.3327C2.16406 19.1245 3.62223 20.5827 5.41406 20.5827H20.5807C22.3726 20.5827 23.8307 19.1245 23.8307 17.3327V8.66602C23.8307 6.87418 22.3726 5.41602 20.5807 5.41602V5.41602Z" fill="black"/>
</svg>
