<svg width="26" height="26" viewBox="0 0 26 26" fill="none" xmlns="http://www.w3.org/2000/svg">
<path fill-rule="evenodd" clip-rule="evenodd" d="M19.5 20.5833H6.5C5.90308 20.5833 5.41667 20.098 5.41667 19.5V14.0833H7.58333V17.3333C7.58333 17.9324 8.06867 18.4167 8.66667 18.4167H17.3333C17.9313 18.4167 18.4167 17.9324 18.4167 17.3333V14.0833H20.5833V19.5C20.5833 20.098 20.0969 20.5833 19.5 20.5833V20.5833ZM9.03717 6.01575C9.22133 5.64633 9.59292 5.41667 10.0057 5.41667H15.9943C16.4071 5.41667 16.7787 5.64633 16.9628 6.01575L19.9138 11.9167H17.3333C16.7353 11.9167 16.25 12.4009 16.25 13V16.25H9.75V13C9.75 12.4009 9.26467 11.9167 8.66667 11.9167H6.08617L9.03717 6.01575ZM22.5214 12.2872L18.9009 5.04617C18.3473 3.939 17.2337 3.25 15.9943 3.25H10.0057C8.76633 3.25 7.65267 3.939 7.09908 5.04617L3.47858 12.2872C3.32908 12.5862 3.25 12.922 3.25 13.2557V19.5C3.25 21.2918 4.70817 22.75 6.5 22.75H19.5C21.2918 22.75 22.75 21.2918 22.75 19.5V13.2557C22.75 12.922 22.6709 12.5862 22.5214 12.2872V12.2872Z" fill="black"/>
</svg>
