<svg width="26" height="26" viewBox="0 0 26 26" fill="none" xmlns="http://www.w3.org/2000/svg">
<path fill-rule="evenodd" clip-rule="evenodd" d="M7.58333 10.8332C7.58333 10.2352 8.06867 9.74984 8.66667 9.74984C9.26467 9.74984 9.75 10.2352 9.75 10.8332C9.75 11.4312 9.26467 11.9165 8.66667 11.9165C8.06867 11.9165 7.58333 11.4312 7.58333 10.8332ZM13 9.74984C12.402 9.74984 11.9167 10.2352 11.9167 10.8332C11.9167 11.4312 12.402 11.9165 13 11.9165C13.598 11.9165 14.0833 11.4312 14.0833 10.8332C14.0833 10.2352 13.598 9.74984 13 9.74984ZM17.3333 9.74984C16.7353 9.74984 16.25 10.2352 16.25 10.8332C16.25 11.4312 16.7353 11.9165 17.3333 11.9165C17.9313 11.9165 18.4167 11.4312 18.4167 10.8332C18.4167 10.2352 17.9313 9.74984 17.3333 9.74984ZM21.6667 16.2498C21.6667 16.8468 21.1803 17.3332 20.5833 17.3332H9.26683C8.67858 17.3332 8.10008 17.4935 7.59417 17.7968L4.33333 19.7533V5.4165C4.33333 4.81959 4.81975 4.33317 5.41667 4.33317H20.5833C21.1803 4.33317 21.6667 4.81959 21.6667 5.4165V16.2498ZM20.5833 2.1665H5.41667C3.62483 2.1665 2.16667 3.62467 2.16667 5.4165V21.6665C2.16667 22.0565 2.37683 22.4173 2.71592 22.609C2.88167 22.7033 3.06583 22.7498 3.25 22.7498C3.44283 22.7498 3.63567 22.6989 3.80792 22.5949L8.70892 19.6548C8.87792 19.5529 9.07075 19.4998 9.26683 19.4998H20.5833C22.3752 19.4998 23.8333 18.0417 23.8333 16.2498V5.4165C23.8333 3.62467 22.3752 2.1665 20.5833 2.1665Z" fill="black"/>
</svg>
