<svg width="34" height="34" viewBox="0 0 34 34" fill="none" xmlns="http://www.w3.org/2000/svg">
<path d="M29.3256 2.125H11.8116C11.4323 2.125 11.0685 2.28217 10.8003 2.56192C10.532 2.84168 10.3813 3.22111 10.3813 3.61675V5.3125L20.2528 8.5L30.7558 5.3125V3.61675C30.7558 3.22111 30.6052 2.84168 30.3369 2.56192C30.0687 2.28217 29.7049 2.125 29.3256 2.125Z" fill="#0364B8"/>
<path d="M32.4381 18.4922C32.5873 18.0031 32.7064 17.5044 32.7946 16.9994C32.7945 16.8753 32.7631 16.7535 32.7035 16.6461C32.644 16.5387 32.5584 16.4495 32.4554 16.3874L32.4421 16.3789L32.4381 16.3768L21.3971 9.81692C21.3495 9.78468 21.3002 9.75524 21.2494 9.72873C21.0382 9.61939 20.8057 9.5625 20.5699 9.5625C20.3342 9.5625 20.1016 9.61939 19.8904 9.72873C19.8397 9.75488 19.7904 9.78397 19.7427 9.81586L8.70177 16.3779L8.69769 16.38L8.68547 16.3874C8.58225 16.4493 8.49648 16.5385 8.43675 16.6459C8.37703 16.7533 8.34546 16.8752 8.34521 16.9994C8.43347 17.5044 8.55256 18.0031 8.70177 18.4922L20.409 27.4225L32.4381 18.4922Z" fill="#0A2767"/>
<path d="M24.6455 5.3125H17.5144L15.4556 8.5L17.5144 11.6875L24.6455 18.0625H30.7578V11.6875L24.6455 5.3125Z" fill="#28A8EA"/>
<path d="M10.3813 5.3125H17.5124V11.6875H10.3813V5.3125Z" fill="#0078D4"/>
<path d="M24.644 5.3125H30.7564V11.6875H24.644V5.3125Z" fill="#50D9FF"/>
<path d="M24.6435 18.0625L17.5124 11.6875H10.3813V18.0625L17.5124 24.4375L28.5473 26.316L24.6435 18.0625Z" fill="#0364B8"/>
<path d="M17.5142 11.6875H24.6452V18.0625H17.5142V11.6875Z" fill="#0078D4"/>
<path d="M10.3813 18.0625H17.5124V24.4375H10.3813V18.0625Z" fill="#064A8C"/>
<path d="M24.644 18.0625H30.7564V24.4375H24.644V18.0625Z" fill="#0078D4"/>
<path opacity="0.5" d="M20.7624 26.7935L8.74854 17.656L9.2528 16.7316C9.2528 16.7316 20.199 23.2341 20.3661 23.3318C20.4344 23.3604 20.5077 23.374 20.5813 23.3718C20.6549 23.3696 20.7273 23.3516 20.7939 23.3191L31.9317 16.6997L32.4369 17.623L20.7624 26.7935Z" fill="#0A2767"/>
<path d="M32.4553 17.6131L32.441 17.6216L32.4379 17.6237L21.397 24.1836C21.1777 24.331 20.9258 24.4174 20.6654 24.4343C20.405 24.4512 20.1448 24.3982 19.9097 24.2803L23.7543 29.6576L32.1629 31.5669V31.5711C32.3585 31.4236 32.5177 31.2297 32.6275 31.0055C32.7373 30.7812 32.7945 30.533 32.7945 30.2813V17C32.7945 17.1243 32.7632 17.2463 32.7037 17.3539C32.6441 17.4616 32.5584 17.5509 32.4553 17.6131Z" fill="#1490DF"/>
<path opacity="0.05" d="M32.7945 30.2812V29.4971L22.6246 23.4536L21.397 24.1836C21.1777 24.331 20.9258 24.4173 20.6654 24.4343C20.405 24.4512 20.1448 24.3982 19.9097 24.2802L23.7543 29.6576L32.1629 31.5669V31.5711C32.3585 31.4235 32.5177 31.2297 32.6275 31.0054C32.7373 30.7812 32.7945 30.533 32.7945 30.2812Z" fill="black"/>
<path opacity="0.1" d="M32.7436 30.6885L21.5957 24.0659L21.397 24.1828C21.1778 24.3304 20.926 24.4169 20.6656 24.4341C20.4052 24.4512 20.1449 24.3983 19.9097 24.2805L23.7543 29.6579L32.1629 31.5672V31.5714C32.448 31.356 32.6531 31.0445 32.7436 30.6895V30.6885Z" fill="black"/>
<path d="M8.7018 17.6269V17.6162H8.69161L8.66105 17.595C8.56366 17.5327 8.4834 17.4451 8.42806 17.3409C8.37272 17.2366 8.34419 17.1192 8.34524 17V30.2813C8.34497 30.4906 8.38432 30.698 8.46102 30.8915C8.53771 31.085 8.65026 31.2608 8.79221 31.4088C8.93416 31.5569 9.10272 31.6743 9.28824 31.7543C9.47376 31.8342 9.67258 31.8753 9.87333 31.875H31.2666C31.3938 31.8737 31.5204 31.8559 31.6435 31.8219C31.7073 31.8103 31.7691 31.7888 31.8269 31.7581C31.8485 31.7559 31.8694 31.7487 31.888 31.7369C31.9714 31.7013 32.0501 31.6549 32.1223 31.5988C32.1427 31.5881 32.1528 31.5881 32.163 31.5669L8.7018 17.6269Z" fill="#28A8EA"/>
<path opacity="0.1" d="M18.5325 26.2087V8.85381C18.5314 8.47853 18.388 8.11893 18.1335 7.85357C17.8791 7.5882 17.5343 7.43862 17.1745 7.4375H10.4132V15.3595L8.70177 16.3774L8.69668 16.3795L8.68445 16.3869C8.58128 16.4491 8.49561 16.5384 8.43606 16.6461C8.3765 16.7537 8.34517 16.8757 8.34521 17V27.625H17.1745C17.5343 27.6239 17.8791 27.4743 18.1335 27.2089C18.388 26.9436 18.5314 26.584 18.5325 26.2087Z" fill="black"/>
<path opacity="0.2" d="M17.5137 27.2712V9.91631C17.5127 9.54103 17.3692 9.18143 17.1148 8.91607C16.8604 8.6507 16.5156 8.50112 16.1558 8.5H10.4132V15.3595L8.70177 16.3774L8.69668 16.3795L8.68445 16.3869C8.58128 16.4491 8.49561 16.5384 8.43606 16.6461C8.3765 16.7537 8.34517 16.8757 8.34521 17V28.6875H16.1558C16.5156 28.6864 16.8604 28.5368 17.1148 28.2714C17.3692 28.0061 17.5127 27.6465 17.5137 27.2712Z" fill="black"/>
<path opacity="0.2" d="M17.5137 25.1462V9.91631C17.5127 9.54103 17.3692 9.18143 17.1148 8.91607C16.8604 8.6507 16.5156 8.50112 16.1558 8.5H10.4132V15.3595L8.70177 16.3774L8.69668 16.3795L8.68445 16.3869C8.58128 16.4491 8.49561 16.5384 8.43606 16.6461C8.3765 16.7537 8.34517 16.8757 8.34521 17V26.5625H16.1558C16.5156 26.5614 16.8604 26.4118 17.1148 26.1464C17.3692 25.8811 17.5127 25.5215 17.5137 25.1462Z" fill="black"/>
<path opacity="0.2" d="M16.495 25.1462V9.91631C16.4939 9.54103 16.3505 9.18143 16.0961 8.91607C15.8417 8.6507 15.4969 8.50112 15.1371 8.5H10.4132V15.3595L8.70177 16.3774L8.69668 16.3795L8.68445 16.3869C8.58128 16.4491 8.49561 16.5384 8.43606 16.6461C8.3765 16.7537 8.34517 16.8757 8.34521 17V26.5625H15.1371C15.4969 26.5614 15.8417 26.4118 16.0961 26.1464C16.3505 25.8811 16.4939 25.5215 16.495 25.1462Z" fill="black"/>
<path d="M1.5523 8.5H15.136C15.4961 8.5 15.8415 8.64922 16.0962 8.91483C16.3509 9.18044 16.4939 9.54068 16.4939 9.91631V24.0837C16.4939 24.4593 16.3509 24.8196 16.0962 25.0852C15.8415 25.3508 15.4961 25.5 15.136 25.5H1.5523C1.19214 25.5 0.84674 25.3508 0.592073 25.0852C0.337406 24.8196 0.194336 24.4593 0.194336 24.0837L0.194336 9.91631C0.194336 9.54068 0.337406 9.18044 0.592073 8.91483C0.84674 8.64922 1.19214 8.5 1.5523 8.5Z" fill="#0078D4"/>
<path d="M4.13487 14.3095C4.49571 13.5075 5.07824 12.8362 5.80762 12.3821C6.61569 11.8997 7.53577 11.6592 8.46649 11.6873C9.32828 11.6678 10.1786 11.8956 10.9247 12.346C11.6269 12.7823 12.1925 13.422 12.5526 14.1873C12.9449 15.0309 13.1404 15.9593 13.1231 16.8967C13.1419 17.8758 12.9406 18.846 12.5353 19.7293C12.1674 20.5219 11.5847 21.1846 10.8595 21.6354C10.0842 22.1002 9.20154 22.3343 8.30757 22.3123C7.42686 22.3341 6.55726 22.1037 5.79336 21.6461C5.08549 21.2091 4.51326 20.5687 4.14506 19.8016C3.75009 18.9704 3.55201 18.0526 3.56744 17.1251C3.55036 16.1539 3.74436 15.1913 4.13487 14.3095ZM5.91764 18.8336C6.10987 19.3407 6.43588 19.7805 6.85793 20.1023C7.28799 20.4162 7.80317 20.5782 8.32795 20.5644C8.88698 20.5871 9.43794 20.4197 9.8978 20.0874C10.3151 19.7658 10.6329 19.3236 10.8116 18.8156C11.012 18.2495 11.1108 17.6498 11.103 17.0465C11.1092 16.4374 11.0162 15.8317 10.8279 15.2551C10.6618 14.7364 10.3554 14.2789 9.94568 13.9376C9.49794 13.5886 8.94859 13.4111 8.39009 13.4351C7.85389 13.4209 7.32718 13.5842 6.88543 13.9015C6.45511 14.2238 6.12157 14.6671 5.92376 15.1797C5.48617 16.3548 5.48363 17.6577 5.91662 18.8347L5.91764 18.8336Z" fill="white"/>
</svg>
