<svg width="26" height="26" viewBox="0 0 26 26" fill="none" xmlns="http://www.w3.org/2000/svg">
<path opacity="0.2" fill-rule="evenodd" clip-rule="evenodd" d="M8 9.25C8 8.5625 8.5625 8 9.25 8C9.9375 8 10.5 8.5625 10.5 9.25V16.75C10.5 17.4375 9.9375 18 9.25 18C8.5625 18 8 17.4375 8 16.75V9.25ZM15.4994 9.25C15.4994 8.5625 16.0619 8 16.7494 8C17.4369 8 17.9994 8.5625 17.9994 9.25V16.75C17.9994 17.4375 17.4369 18 16.7494 18C16.0619 18 15.4994 17.4375 15.4994 16.75V9.25ZM13 23C7.48625 23 3 18.5138 3 13C3 7.48625 7.48625 3 13 3C18.5138 3 23 7.48625 23 13C23 18.5138 18.5138 23 13 23ZM13 0.5C6.1075 0.5 0.5 6.1075 0.5 13C0.5 19.8925 6.1075 25.5 13 25.5C19.8925 25.5 25.5 19.8925 25.5 13C25.5 6.1075 19.8925 0.5 13 0.5Z" fill="black"/>
</svg>
