<svg width="26" height="26" viewBox="0 0 26 26" fill="none" xmlns="http://www.w3.org/2000/svg">
<path opacity="0.2" fill-rule="evenodd" clip-rule="evenodd" d="M12.375 16.2495V9.75075L15.8862 12.9995L12.375 16.2495ZM13.4237 7.31575C12.8013 6.73825 11.8925 6.58825 11.11 6.932C10.3475 7.2645 9.875 7.97575 9.875 8.787V17.2133C9.875 18.0245 10.3475 18.7358 11.11 19.0683C11.3888 19.1908 11.685 19.2495 11.9762 19.2495C12.505 19.2495 13.0238 19.0557 13.4225 18.6858L17.975 14.4733C18.3888 14.0908 18.625 13.5545 18.625 12.9995C18.625 12.4458 18.3888 11.9083 17.975 11.527L13.4237 7.31575ZM13 23C7.48625 23 3 18.5138 3 13C3 7.48625 7.48625 3 13 3C18.5138 3 23 7.48625 23 13C23 18.5138 18.5138 23 13 23ZM13 0.5C6.1075 0.5 0.5 6.1075 0.5 13C0.5 19.8925 6.1075 25.5 13 25.5C19.8925 25.5 25.5 19.8925 25.5 13C25.5 6.1075 19.8925 0.5 13 0.5Z" fill="black"/>
</svg>
