<svg width="26" height="26" viewBox="0 0 26 26" fill="none" xmlns="http://www.w3.org/2000/svg">
<path fill-rule="evenodd" clip-rule="evenodd" d="M8.11963 10.3096C5.91829 12.6919 5.96488 16.4684 8.25938 18.8073C9.37954 19.9524 10.868 20.5839 12.454 20.585H12.4595C14.0487 20.585 15.5426 19.9534 16.6682 18.8073C19.0039 16.4261 18.9995 12.5532 16.6585 10.1753L13.4236 6.87003C13.0965 9.55886 12.0879 11.9184 10.2917 11.9184C9.74138 11.9184 8.84438 11.6735 8.11963 10.3096ZM12.4595 22.7517H12.4519C10.2787 22.7495 8.23988 21.8883 6.71129 20.3229C3.55446 17.1054 3.55013 11.8696 6.70154 8.65753L7.76646 7.5807C8.04163 7.30553 8.44138 7.19936 8.81946 7.29795C9.19538 7.39978 9.48788 7.69553 9.58538 8.07253C9.83454 9.03561 10.1314 9.50903 10.295 9.68886C10.6795 9.2837 11.375 7.64678 11.375 4.8767C11.375 4.71745 11.375 4.56686 11.3664 4.41628C11.3458 4.0967 11.4682 3.78361 11.7 3.56261C12.1301 3.1542 12.8191 3.1542 13.2319 3.57886L18.2044 8.65861C21.3677 11.8696 21.3731 17.1054 18.2152 20.3239C16.678 21.8904 14.6348 22.7517 12.4595 22.7517Z" fill="black"/>
</svg>
