<svg width="26" height="26" viewBox="0 0 26 26" fill="none" xmlns="http://www.w3.org/2000/svg">
<path fill-rule="evenodd" clip-rule="evenodd" d="M9.20768 10.2917C9.20768 8.20083 10.9085 6.5 12.9993 6.5C15.0902 6.5 16.791 8.20083 16.791 10.2917C16.791 12.0033 15.6427 13.4366 14.0827 13.9067V15.1667C14.0827 15.7657 13.5984 16.25 12.9993 16.25C12.4003 16.25 11.916 15.7657 11.916 15.1667V13C11.916 12.4009 12.4003 11.9167 12.9993 11.9167C13.8953 11.9167 14.6243 11.1876 14.6243 10.2917C14.6243 9.39575 13.8953 8.66666 12.9993 8.66666C12.1034 8.66666 11.3743 9.39575 11.3743 10.2917C11.3743 10.8907 10.8901 11.375 10.291 11.375C9.69193 11.375 9.20768 10.8907 9.20768 10.2917ZM11.916 18.4167C11.916 17.8176 12.4003 17.3333 12.9993 17.3333C13.5984 17.3333 14.0827 17.8176 14.0827 18.4167C14.0827 19.0157 13.5984 19.5 12.9993 19.5C12.4003 19.5 11.916 19.0157 11.916 18.4167ZM12.9993 21.6667C8.22077 21.6667 4.33268 17.7786 4.33268 13C4.33268 8.22141 8.22077 4.33333 12.9993 4.33333C17.7779 4.33333 21.666 8.22141 21.666 13C21.666 17.7786 17.7779 21.6667 12.9993 21.6667M12.9993 2.16666C7.02585 2.16666 2.16602 7.0265 2.16602 13C2.16602 18.9735 7.02585 23.8333 12.9993 23.8333C18.9728 23.8333 23.8327 18.9735 23.8327 13C23.8327 7.0265 18.9728 2.16666 12.9993 2.16666" fill="black"/>
</svg>
