<svg width="24" height="24" viewBox="0 0 24 24" fill="none" xmlns="http://www.w3.org/2000/svg">
<path d="M15.35 5.55011C14.5901 5.54998 13.8606 5.84809 13.3182 6.38032C12.7759 6.91256 12.4641 7.63638 12.45 8.39611L12.422 9.97111C12.4205 10.0558 12.4011 10.1391 12.3651 10.2158C12.329 10.2924 12.2772 10.3605 12.213 10.4157C12.1488 10.4708 12.0736 10.5118 11.9924 10.5358C11.9112 10.5598 11.8259 10.5664 11.742 10.5551L10.18 10.3421C8.12698 10.0621 6.15898 9.11711 4.26998 7.54411C3.67298 10.8541 4.83998 13.1471 7.65298 14.9161L9.39998 16.0141C9.48285 16.0662 9.5517 16.1378 9.60054 16.2227C9.64937 16.3075 9.67671 16.403 9.68016 16.5008C9.68361 16.5987 9.66307 16.6959 9.62034 16.7839C9.5776 16.872 9.51397 16.9483 9.43498 17.0061L7.84298 18.1701C8.78998 18.2301 9.68898 18.1881 10.435 18.0401C15.153 17.0981 18.29 13.5481 18.29 7.69211C18.29 7.21411 17.277 5.55011 15.35 5.55011ZM10.45 8.36011C10.4674 7.39616 10.7689 6.45878 11.3165 5.66534C11.8642 4.87189 12.6338 4.25763 13.5289 3.89948C14.424 3.54133 15.4049 3.45519 16.3487 3.65186C17.2926 3.84853 18.1574 4.31926 18.835 5.00511C19.546 5.00011 20.151 5.18011 21.503 4.35911C21.169 5.99911 21.003 6.71211 20.29 7.69111C20.29 15.3321 15.593 19.0491 10.826 20.0001C7.55898 20.6521 2.80598 19.5811 1.44598 18.1581C2.13898 18.1051 4.95898 17.8021 6.58898 16.6081C5.20898 15.6981 -0.279016 12.4681 3.32798 3.78611C5.02098 5.76311 6.73798 7.10811 8.47798 7.82311C9.63498 8.29811 9.91998 8.28811 10.451 8.36111L10.45 8.36011Z" fill="white"/>
</svg>
