<svg width="26" height="26" viewBox="0 0 26 26" fill="none" xmlns="http://www.w3.org/2000/svg">
<path fill-rule="evenodd" clip-rule="evenodd" d="M8.66732 5.41666C8.66732 6.01249 8.17982 6.49999 7.58398 6.49999H6.50065V19.5H7.58398C8.17982 19.5 8.66732 19.9875 8.66732 20.5833C8.66732 21.1792 8.17982 21.6667 7.58398 21.6667H5.41732C4.82148 21.6667 4.33398 21.1792 4.33398 20.5833V5.41666C4.33398 4.82083 4.82148 4.33333 5.41732 4.33333H7.58398C8.17982 4.33333 8.66732 4.82083 8.66732 5.41666ZM19.5049 8.04353L22.5534 12.3769C22.8242 12.7604 22.8155 13.2749 22.5339 13.6498L19.2839 17.9831C19.0715 18.2669 18.7455 18.4164 18.4161 18.4164C18.1908 18.4164 17.9622 18.346 17.7672 18.1998C17.2884 17.8412 17.192 17.1619 17.5505 16.6842L19.5016 14.0831H19.5005H10.8339C10.2359 14.0831 9.75054 13.5989 9.75054 12.9998C9.75054 12.4007 10.2359 11.9164 10.8339 11.9164H19.5005C19.5185 11.9164 19.535 11.9214 19.5518 11.9264C19.5654 11.9304 19.5791 11.9345 19.5937 11.9359L17.7325 9.28936C17.388 8.80078 17.5061 8.12478 17.9958 7.78028C18.4844 7.43469 19.1604 7.55386 19.5049 8.04353Z" fill="black"/>
</svg>
