<svg width="26" height="26" viewBox="0 0 26 26" fill="none" xmlns="http://www.w3.org/2000/svg">
<path fill-rule="evenodd" clip-rule="evenodd" d="M20.5833 4.3335C19.9874 4.3335 19.4999 4.821 19.4999 5.41683V21.6668C19.4999 22.2627 19.9874 22.7502 20.5833 22.7502C21.1791 22.7502 21.6666 22.2627 21.6666 21.6668V5.41683C21.6666 4.821 21.1791 4.3335 20.5833 4.3335ZM12.9999 8.66683C12.4041 8.66683 11.9166 9.15433 11.9166 9.75016V21.6668C11.9166 22.2627 12.4041 22.7502 12.9999 22.7502C13.5958 22.7502 14.0833 22.2627 14.0833 21.6668V9.75016C14.0833 9.15433 13.5958 8.66683 12.9999 8.66683ZM4.33325 14.0835C4.33325 13.4877 4.82075 13.0002 5.41659 13.0002C6.01242 13.0002 6.49992 13.4877 6.49992 14.0835V21.6668C6.49992 22.2627 6.01242 22.7502 5.41659 22.7502C4.82075 22.7502 4.33325 22.2627 4.33325 21.6668V14.0835Z" fill="black"/>
</svg>
